<svg id="Capa_1" data-name="Capa 1" xmlns="http://www.w3.org/2000/svg" viewBox="0 0 400 101">
  <g>
    <path d="M215.05,96.67v.13h-7v-.15Z" fill="#fefbfb"/>
    <path d="M128.12,53.87l10.59,11c2.61,2.71,5.21,5.43,7.84,8.13.5.52.88,1.07.54,1.81s-1,.77-1.65.77q-4,0-8.09,0a2,2,0,0,1-1.56-.64q-10.57-10.64-21.17-21.26a1.93,1.93,0,0,1-.61-1.46c0-1.95,0-3.89,0-5.84,0-1.29.45-1.72,1.77-1.73h18.14c2.46,0,3.15-.66,3.16-3.08,0-1.17,0-2.34,0-3.5A2.09,2.09,0,0,0,135,35.85a8.79,8.79,0,0,0-1.26-.09c-6.53,0-13.06,0-19.6,0-.83,0-1,.25-1,1q0,18.33,0,36.68c0,1.79-.31,2.1-2.08,2.1h-5.46c-1.25,0-1.69-.46-1.69-1.71q0-22.83,0-45.64c0-1.25.4-1.7,1.57-1.7l30.32,0A12.63,12.63,0,0,1,139,27a8.87,8.87,0,0,1,7,7.26A31.59,31.59,0,0,1,146,45.73c-.86,5-4.27,7.8-9.32,8.05-2.46.12-4.94.07-7.41.09C129,53.88,128.68,53.87,128.12,53.87Z" fill="#212020"/>
    <path d="M253.53,50c.09-4-.19-9,.12-13.92.36-5.8,4-9.45,9.86-9.55,7.57-.12,15.14,0,22.71,0a10.16,10.16,0,0,1,2.31.34A9.14,9.14,0,0,1,296,35.29a29.27,29.27,0,0,1,.17,3.1q0,12.75,0,25.49a18,18,0,0,1-.42,4.15,9.24,9.24,0,0,1-8.07,7.36,18.88,18.88,0,0,1-2.81.21H264.77a15.54,15.54,0,0,1-4-.46,9.33,9.33,0,0,1-7.15-8.78c-.23-2.69-.1-5.38-.12-8.07C253.52,55.86,253.53,53.43,253.53,50Zm33.28,1c0-4.09,0-8.17,0-12.25,0-2.08-.78-2.88-2.84-3-.26,0-.52,0-.78,0H266.43a10.12,10.12,0,0,0-1.55.12,2.19,2.19,0,0,0-1.83,1.66,6.29,6.29,0,0,0-.22,1.83q0,11.81,0,23.62c0,2.53.78,3.32,3.32,3.32q8.67,0,17.34,0c2.57,0,3.32-.76,3.32-3.31C286.82,59,286.81,55.05,286.81,51.07Z" fill="#222120"/>
    <path d="M215.05,96.67l-7,0A1.54,1.54,0,0,1,207,95q0-33.37,0-66.75c0-1.34.38-1.71,1.75-1.71h29.15a15.23,15.23,0,0,1,4.25.51,9.45,9.45,0,0,1,7,8,30.37,30.37,0,0,1,0,10.84,9.18,9.18,0,0,1-8.31,7.79,23.29,23.29,0,0,1-3,.2H219.23c-1.58,0-1.93-.36-1.93-2V46.67c0-1.65.35-2,2-2h17.16c.43,0,.85,0,1.27,0,1.81-.13,2.5-.87,2.51-2.65,0-1.23,0-2.47,0-3.7A2.22,2.22,0,0,0,238,35.84a10.66,10.66,0,0,0-1.26-.08c-6.5,0-13,0-19.5,0-.83,0-1,.24-1,1q0,29,0,58C216.26,95.69,216.12,96.45,215.05,96.67Z" fill="#21201f"/>
    <path d="M392.54,50.94c0,4.89.14,9.79,0,14.68-.22,6.12-4.07,9.85-10.22,9.94-7.3.11-14.62.1-21.93,0-6.49-.09-10.29-4.13-10.34-10.86Q350,54.17,350,43.6a70.49,70.49,0,0,1,.14-8c.64-5.57,4.18-8.95,9.83-9.07,6-.13,12.08-.07,18.12-.06a39.32,39.32,0,0,1,5.94.19c5.07.81,8.19,4.14,8.46,9.26S392.54,46,392.54,50.94Zm-33.21.2h0c0,4.08,0,8.16,0,12.25,0,2,.77,2.9,2.79,2.91q9.21.06,18.41,0c1.89,0,2.59-.79,2.74-2.69,0-.32,0-.64,0-1V47.38c0-2.82,0-5.64,0-8.46,0-2.28-.85-3.08-3.13-3.16H362.91a12.24,12.24,0,0,0-1.35.09,2.27,2.27,0,0,0-2.09,1.87,6.82,6.82,0,0,0-.14,1.74C359.32,43.36,359.33,47.25,359.33,51.14Z" fill="#222120"/>
    <path d="M73.94,41.4Q67.76,54,61.59,66.6c-1.29,2.61-2.59,5.22-3.84,7.84a1.76,1.76,0,0,1-1.82,1.15c-2.27,0-4.55,0-6.82,0-1.44,0-2-.89-1.38-2.18Q59,50.54,70.22,27.67a1.66,1.66,0,0,1,1.7-1c1.37,0,2.74.05,4.1,0a1.9,1.9,0,0,1,2,1.28Q88.9,50.28,99.84,72.58c1,2.06.82,3.22-1.93,3a52.34,52.34,0,0,0-5.46,0,2.05,2.05,0,0,1-2.19-1.35q-7.85-16-15.76-31.94A2.49,2.49,0,0,0,73.94,41.4Z" fill="#222120"/>
    <path d="M177.11,41.31l-3.8,7.74Q167.16,61.59,161,74.16a2.18,2.18,0,0,1-2.33,1.44c-2.14-.08-4.29,0-6.43,0-1.5,0-2.05-.88-1.39-2.23q11.22-22.81,22.45-45.64A1.65,1.65,0,0,1,175,26.66c1.4,0,2.8.05,4.19,0a1.86,1.86,0,0,1,2,1.24q8.06,16.61,16.16,33.16l5.91,12.13c.78,1.62.3,2.42-1.47,2.42-2.08,0-4.17,0-6.24,0a2,2,0,0,1-2.11-1.32q-7.85-16-15.77-31.95C177.48,42,177.32,41.72,177.11,41.31Z" fill="#222120"/>
    <path d="M323,26.55h19.2c1.53,0,1.92.39,1.93,1.88,0,1.88,0,3.76,0,5.64,0,1.27-.43,1.69-1.71,1.69-4.55,0-9.1,0-13.65,0-.82,0-1,.23-1,1q0,18.39,0,36.78c0,1.77-.32,2.08-2.09,2.08h-5.36c-1.44,0-1.8-.38-1.8-1.88V45.14c0-2.82,0-5.64,0-8.47,0-.71-.16-.93-.91-.93-4.61,0-9.23,0-13.84,0-1.58,0-1.92-.35-1.92-1.95,0-1.82,0-3.64,0-5.45,0-1.37.45-1.8,1.81-1.81Z" fill="#232221"/>
    <path d="M31.49,26.55H50.7c1.5,0,1.89.4,1.9,1.91,0,1.85,0,3.69,0,5.54,0,1.33-.41,1.76-1.73,1.76-4.55,0-9.1,0-13.65,0-.83,0-1,.24-1,1q0,18.43,0,36.87c0,1.67-.31,2-2,2h-5c-2.06,0-2.24-.17-2.24-2.19,0-12.17,0-24.33,0-36.49,0-1-.28-1.21-1.23-1.2-4.52,0-9,0-13.56,0-1.57,0-1.93-.38-1.93-2,0-1.82,0-3.63.05-5.45,0-1.39.43-1.79,1.81-1.79Z" fill="#21201f"/>
    <path d="M66.49,12c.48.36,1,.68,1.38,1.06A3.89,3.89,0,0,1,68.12,19a7,7,0,0,1-4.8,2.29c-2.75.15-5.52.06-8.27.1-.5,0-.59-.22-.59-.65V3.22c0-.34,0-.65.49-.63,3,.11,6-.26,9,.22a6.78,6.78,0,0,1,4.5,2.64,3.75,3.75,0,0,1-.41,5.26A20.2,20.2,0,0,1,66.49,12ZM57.75,7.82v2.33c0,.35,0,.65.49.63a34.09,34.09,0,0,0,4.85-.14c1.85-.36,3-1.53,3-2.83S64.59,5.28,62.8,5.14C61.35,5,59.89,5.08,58.44,5c-.59,0-.72.24-.7.75C57.77,6.46,57.75,7.14,57.75,7.82Zm0,8.2v2.33c0,.32,0,.6.46.58a32.85,32.85,0,0,0,5-.15c1.74-.35,2.93-1.53,2.88-2.82S64.69,13.54,63,13.32a42.77,42.77,0,0,0-4.67-.11c-.42,0-.58.16-.57.57C57.76,14.53,57.75,15.27,57.75,16Z" fill="#ec3439"/>
    <path d="M142.78,12c0-2.85,0-5.7,0-8.55,0-.36-.15-.83.51-.81,3,.11,6-.24,8.94.22a7.24,7.24,0,0,1,3.59,1.63,4.85,4.85,0,0,1,1.89,4c0,2.11,0,4.21,0,6.32,0,3.49-1.61,5.51-5,6.35a15.8,15.8,0,0,1-3.88.29c-1.72,0-3.44,0-5.16,0-.7,0-.86-.22-.86-.89C142.8,17.65,142.78,14.8,142.78,12Zm11.61.07V8.81a3.29,3.29,0,0,0-3.29-3.66c-1.45-.13-2.91-.05-4.37-.09-.53,0-.67.2-.66.69,0,1.23,0,2.46,0,3.69,0,2.88,0,5.77,0,8.65,0,.35-.17.86.48.84a29.32,29.32,0,0,0,5-.17,3.22,3.22,0,0,0,2.87-3.54Z" fill="#ec353a"/>
    <path d="M165.84,14c0-1.91,0-3.82,0-5.73a4.92,4.92,0,0,1,2.32-4.44,9.53,9.53,0,0,1,10.3.05,5,5,0,0,1,2.29,4.36c-.05,4.08,0,8.17,0,12.26,0,.65-.14.89-.85.88-2.48,0-2.48,0-2.48-2.44,0-1.59,0-3.18,0-4.77,0-.8-.26-.95-1-.94-2.11,0-4.23,0-6.34,0-.74,0-1,.16-1,1,.06,2.1,0,4.21,0,6.32,0,.68-.2.87-.88.87-2.43,0-2.43,0-2.43-2.41Zm7.44-3.22c.55,0,1.1,0,1.65,0,.81,0,1.85.36,2.34-.17s.09-1.54.15-2.35a2.88,2.88,0,0,0-2-3,5.39,5.39,0,0,0-3.52-.29,3.25,3.25,0,0,0-2.81,3.52c0,.51,0,1,0,1.55s.16.8.77.78C171,10.74,172.14,10.77,173.28,10.77Z" fill="#ec3439"/>
    <path d="M188.87,11.92c0-2.85,0-5.71,0-8.56,0-.31-.17-.78.43-.76,3,.09,6.05-.26,9.05.22A7.15,7.15,0,0,1,202,4.54a4.72,4.72,0,0,1,1.74,3.74c0,2.44,0,4.87,0,7.3a4.78,4.78,0,0,1-2.05,4.08,7.32,7.32,0,0,1-4.3,1.62c-2.63.09-5.26,0-7.89.09-.65,0-.64-.34-.64-.79C188.88,17.69,188.87,14.81,188.87,11.92Zm3.3.06c0,2.07,0,4.15,0,6.22,0,.35-.08.75.5.73a30.35,30.35,0,0,0,4.86-.17,3.19,3.19,0,0,0,2.89-3.5V8.84c0-2.28-1.12-3.54-3.43-3.71-1.33-.1-2.67,0-4-.08-.73,0-.86.25-.85.9C192.2,8,192.17,10,192.17,12Z" fill="#ec353a"/>
    <path d="M31.42,9.71c0-2.1,0-4.21,0-6.32,0-.64.18-.81.82-.81,2.49,0,2.49,0,2.49,2.43V15.32c0,2.2.84,3.26,3,3.73a5.2,5.2,0,0,0,3.59-.45,2.94,2.94,0,0,0,1.73-2.81c0-4.11,0-8.23,0-12.34,0-.67.16-.88.85-.87,2.47,0,2.47,0,2.47,2.45,0,3.57,0,7.13,0,10.7a5,5,0,0,1-2.29,4.36,9.45,9.45,0,0,1-10.37,0,5,5,0,0,1-2.29-4.36C31.45,13.73,31.42,11.72,31.42,9.71Z" fill="#ec353a"/>
    <path d="M10.46,11.94c0-2.82,0-5.64,0-8.46,0-.75.21-.92.93-.9,2.37,0,4.74,0,7.11,0A7.76,7.76,0,0,1,23.8,4.69a4.2,4.2,0,0,1-.13,6.56,8.56,8.56,0,0,1-5.76,2c-1.07,0-2.15,0-3.22,0-.71,0-1,.14-.94.9.06,2.14,0,4.28,0,6.42,0,.63-.16.83-.81.83-2.51,0-2.51.05-2.51-2.42Zm3.31-4.17v2.39c0,.29-.06.63.4.61,1.82-.08,3.65.24,5.43-.25A3,3,0,0,0,22,7.9a2.94,2.94,0,0,0-2.3-2.58,9.19,9.19,0,0,0-3.09-.25c-.9,0-2.08-.38-2.63.15S13.87,7,13.77,7.77Z" fill="#ec353a"/>
    <path d="M112,12c0,1.33,0,2.66,0,4a2.59,2.59,0,0,0,1.36,2.41,5.2,5.2,0,0,0,5.54,0,2.33,2.33,0,0,0,1.32-1.83c.05-.77.41-.8,1-.76s.91,0,1.37,0c1.12,0,1.17.06.94,1.13A5,5,0,0,1,121.41,20a9.39,9.39,0,0,1-10.61,0,4.81,4.81,0,0,1-2.11-4.14c0-2.56,0-5.13,0-7.69a4.83,4.83,0,0,1,2-4.1,9.45,9.45,0,0,1,11,.11,5,5,0,0,1,1.86,3.1c.09.57,0,1-.71.88a4.31,4.31,0,0,0-.88,0c-.94.06-1.8.15-1.93-1.23-.06-.75-.81-1.22-1.5-1.56a5.32,5.32,0,0,0-4.43-.17A2.94,2.94,0,0,0,112,8.29V12Z" fill="#ec3439"/>
    <path d="M177.09,75.6a5.55,5.55,0,0,1,0-11.09,5.55,5.55,0,1,1,0,11.09Z" fill="#232221"/>
    <path d="M79.52,70.07a5.56,5.56,0,0,1-11.11,0,5.56,5.56,0,1,1,11.11,0Z" fill="#ec3439"/>
    <path d="M77.15,11.89c0-2.82,0-5.64,0-8.46,0-.69.19-.86.87-.85,2.45,0,2.45,0,2.45,2.48,0,4.31,0,8.62,0,12.93,0,.79.24,1,1,1,2.63-.05,5.26,0,7.89,0,.73,0,1,.18.91.92a2.84,2.84,0,0,0,0,.77c.08.61-.19.77-.77.77-3.84,0-7.67,0-11.5,0-.65,0-.82-.19-.81-.82C77.17,17.67,77.15,14.78,77.15,11.89Z" fill="#ec3439"/>
    <path d="M97.25,11.89c0-2.82,0-5.64,0-8.46,0-.7.2-.85.87-.85,2.46,0,2.46,0,2.46,2.47,0,5.12,0,10.24,0,15.36,0,.79-.23,1-1,1-2.35,0-2.35,0-2.35-2.38Z" fill="#ec3439"/>
    <path d="M131.36,11.88c0-2.82,0-5.63,0-8.45,0-.7.2-.85.87-.85,2.45,0,2.45,0,2.45,2.48,0,5.12,0,10.23,0,15.35,0,.79-.24,1-1,1-2.34,0-2.34,0-2.34-2.29Z" fill="#ec353a"/>
    <path d="M286.81,51.07c0,4,0,8,0,12,0,2.55-.75,3.3-3.32,3.31q-8.67,0-17.34,0c-2.54,0-3.31-.79-3.32-3.32q0-11.8,0-23.62a6.29,6.29,0,0,1,.22-1.83,2.19,2.19,0,0,1,1.83-1.66,10.12,10.12,0,0,1,1.55-.12h16.76c.26,0,.52,0,.78,0,2.06.16,2.83,1,2.84,3C286.82,42.9,286.81,47,286.81,51.07Z" fill="#fdfdfd"/>
    <path d="M359.33,51.14c0-3.89,0-7.78,0-11.67a6.82,6.82,0,0,1,.14-1.74,2.27,2.27,0,0,1,2.09-1.87,12.24,12.24,0,0,1,1.35-.09h17.25c2.28.08,3.11.88,3.13,3.16,0,2.82,0,5.64,0,8.46V62.64c0,.33,0,.65,0,1-.15,1.9-.85,2.67-2.74,2.69q-9.19.06-18.41,0c-2,0-2.78-.86-2.79-2.91,0-4.09,0-8.17,0-12.25Z" fill="#fdfdfd"/>
    <path d="M57.75,7.82c0-.68,0-1.36,0-2,0-.51.11-.77.7-.75,1.45,0,2.91,0,4.36.11,1.79.14,3.18,1.34,3.25,2.67s-1.11,2.47-3,2.83a34.09,34.09,0,0,1-4.85.14c-.48,0-.49-.28-.49-.63Z" fill="#fefbfb"/>
    <path d="M57.75,16c0-.75,0-1.49,0-2.24,0-.41.15-.58.57-.57a42.77,42.77,0,0,1,4.67.11c1.7.22,3,1.38,3.06,2.64s-1.14,2.47-2.88,2.82a32.85,32.85,0,0,1-5,.15c-.42,0-.46-.26-.46-.58Z" fill="#fefbfb"/>
    <path d="M154.39,12v3.2a3.22,3.22,0,0,1-2.87,3.54,29.32,29.32,0,0,1-5,.17c-.65,0-.48-.49-.48-.84,0-2.88,0-5.77,0-8.65,0-1.23,0-2.46,0-3.69,0-.49.13-.71.66-.69,1.46,0,2.92,0,4.37.09a3.29,3.29,0,0,1,3.29,3.66Z" fill="#fefbfb"/>
    <path d="M173.28,10.77c-1.14,0-2.28,0-3.41,0-.61,0-.81-.19-.77-.78s0-1,0-1.55a3.25,3.25,0,0,1,2.81-3.52,5.39,5.39,0,0,1,3.52.29,2.88,2.88,0,0,1,2,3c-.06.81.33,1.84-.15,2.35s-1.53.12-2.34.17C174.38,10.8,173.83,10.77,173.28,10.77Z" fill="#fefbfb"/>
    <path d="M192.17,12c0-2,0-4,0-6,0-.65.12-.94.85-.9,1.32.07,2.66,0,4,.08,2.31.17,3.43,1.43,3.43,3.71v6.42a3.19,3.19,0,0,1-2.89,3.5,30.35,30.35,0,0,1-4.86.17c-.58,0-.5-.38-.5-.73C192.17,16.13,192.17,14.05,192.17,12Z" fill="#fefdfd"/>
    <path d="M13.77,7.77c.1-.77-.41-2,.2-2.55s1.73-.14,2.63-.15a9.19,9.19,0,0,1,3.09.25A2.94,2.94,0,0,1,22,7.9a3,3,0,0,1-2.39,2.62c-1.78.49-3.61.17-5.43.25-.46,0-.39-.32-.4-.61Z" fill="#fefdfd"/>
  </g>
</svg>
