<svg id="Capa_1" data-name="Capa 1" xmlns="http://www.w3.org/2000/svg" viewBox="0 0 78 82">
  <g>
    <path d="M31.54,17.64c.19-2.11.17-2.17-1.76-1.46-12.16,4.5-19.36,13.1-21.4,25.92a26.76,26.76,0,0,0-.22,3.1c0,.43-.14.56-.56.55-2.45-.11-2.16.53-1.93-2.1,1.12-12.34,7.18-21.51,18-27.6l.67-.38c-.18-.33-.47-.18-.69-.18-2.76,0-5.52,0-8.28,0-.42,0-.76,0-1,.48A4.62,4.62,0,0,1,9.58,18.7a4.73,4.73,0,0,1-4.32-3.37c0-.15,0-.33-.24-.38V12.81c.3-.16.26-.49.37-.75A4.75,4.75,0,0,1,9.56,9,4.58,4.58,0,0,1,14,11.17a1.35,1.35,0,0,0,1.32.7c5.13,0,10.26,0,15.4,0,.69,0,1-.12.92-.88-.07-1.26,0-2.53,0-3.8s.47-1.83,1.8-1.84H46.55c1.36,0,1.79.44,1.8,1.81s0,2.66,0,4c0,.55.13.72.7.72,5.33,0,10.66,0,16,0,.55,0,.71-.31.94-.66a4.87,4.87,0,1,1,5.46,7.33,4.79,4.79,0,0,1-5.64-2.34,1.19,1.19,0,0,0-1.27-.74c-3,0-6,0-9.09,0,.15.42.51.45.77.59C66.5,21.89,72.47,30.64,74,42.37c.12.9.11,1.81.19,2.72,0,.51-.14.65-.65.66-1.91.07-1.91.09-2-1.82a31.53,31.53,0,0,0-22.41-28c-.69-.2-.86-.07-.79.6,0,.38,0,.77,0,1.16,0,1,0,2,0,3,0,1.17-.54,1.7-1.72,1.7H33.37c-1.29,0-1.75-.45-1.79-1.72C31.56,19.64,31.55,18.64,31.54,17.64Z" fill="#232221"/>
    <path d="M31.54,17.64c0,1,0,2,0,3,0,1.27.5,1.72,1.79,1.72H46.62c1.18,0,1.7-.53,1.72-1.7,0-1,0-2,0-3C60.73,21.75,68.11,30.16,70,43A30,30,0,0,1,53.43,73.87c-.25.12-.49.33-.81.27.45-3.23,1.27-6.39,2-9.57l.17-.21,0,0a5.27,5.27,0,0,0,.62-.43c6-5.64,8.58-12.54,7.41-20.7A23.15,23.15,0,0,0,17,50.08a22.42,22.42,0,0,0,8,14.27c.85,3.26,1.58,6.55,2.22,9.86-9-4.31-14.66-11.28-16.87-20.95a30.24,30.24,0,0,1,20.8-35.52A4.1,4.1,0,0,1,31.54,17.64Z" fill="#ec3338"/>
    <path d="M27.13,74.21c-.64-3.31-1.37-6.6-2.22-9.86-.47-2.22-.91-4.44-1.42-6.64a1.6,1.6,0,0,1,.23-1.35L37.33,34.15c.12-.2.16-.49.53-.54a2.52,2.52,0,0,1,0,.37q0,14.25,0,28.51c0,.57-.3.75-.7,1a5.05,5.05,0,0,0-2.35,5.85A5.18,5.18,0,0,0,41,73.1a5.29,5.29,0,0,0,1.64-9.57,1.24,1.24,0,0,1-.73-1.27q0-13.95,0-27.9v-.83a2.23,2.23,0,0,1,.65.75c4.08,6.76,8.1,13.56,12.3,20.26a5.78,5.78,0,0,1,.81,5.05,17.64,17.64,0,0,0-.9,4.79l0,0c-.21-.06-.16.1-.17.21-.69,3.18-1.51,6.34-2,9.57v0c-.11,0-.14.08-.13.18-.35.85-.13,1.22.85,1.12.74-.08,1.49,0,2.24,0s.9.31.92.95c.09,2.27.11,2.27-2.14,2.27H24.85c-.51,0-1.26.24-1.4-.49a3.81,3.81,0,0,1,.13-2.47c.15-.29.5-.24.79-.25h1.95C27.51,75.4,27.51,75.4,27.13,74.21Z" fill="#232120"/>
    <path d="M52.49,74.3c0-.1,0-.17.13-.18S52.6,74.28,52.49,74.3Z" fill="#ec3338"/>
    <path d="M54.73,64.38a17.64,17.64,0,0,1,.9-4.79,5.78,5.78,0,0,0-.81-5.05c-4.2-6.7-8.22-13.5-12.3-20.26a2.23,2.23,0,0,0-.65-.75v.83q0,13.95,0,27.9a1.24,1.24,0,0,0,.73,1.27,4.81,4.81,0,0,1,2.21,5.81,18.46,18.46,0,0,1-4.25.47,5.41,5.41,0,0,0,.61-.46,1.78,1.78,0,0,0,.4-2.22,1.89,1.89,0,0,0-3.55.66,2,2,0,0,0,1.21,2,20.46,20.46,0,0,1-4.34-.47,5.05,5.05,0,0,1,2.35-5.85c.4-.25.7-.43.7-1q0-14.27,0-28.51a2.52,2.52,0,0,0,0-.37c-.37,0-.41.34-.53.54L23.72,56.36a1.6,1.6,0,0,0-.23,1.35c.51,2.2,1,4.42,1.42,6.64A22.42,22.42,0,0,1,17,50.08a23.15,23.15,0,0,1,45.8-6.83c1.17,8.16-1.39,15.06-7.41,20.7A5.27,5.27,0,0,1,54.73,64.38Z" fill="#fefdfd"/>
    <path d="M54.58,64.57c0-.11,0-.27.17-.21Z" fill="#fefdfd"/>
    <path d="M34.88,69.34a20.46,20.46,0,0,0,4.34.47h1.33a18.46,18.46,0,0,0,4.25-.47A4.85,4.85,0,0,1,41,73.1,5.18,5.18,0,0,1,34.88,69.34Z" fill="#ec3338"/>
    <path d="M40.55,69.81H39.22a2,2,0,0,1-1.21-2,1.89,1.89,0,0,1,3.55-.66,1.78,1.78,0,0,1-.4,2.22A5.41,5.41,0,0,1,40.55,69.81Z" fill="#252423"/>
  </g>
</svg>
